<?xml version="1.0" encoding="UTF-8"?>
<svg width="183px" height="31px" viewBox="0 0 183 31" version="1.1" xmlns="http://www.w3.org/2000/svg" xmlns:xlink="http://www.w3.org/1999/xlink">
    <!-- Generator: Sketch 44.1 (41455) - http://www.bohemiancoding.com/sketch -->
    <title>Prototypal Logo</title>
    <desc>Created with Sketch.</desc>
    <defs></defs>
    <g id="Blog" stroke="none" stroke-width="1" fill="none" fill-rule="evenodd">
        <g id="Desktop-HD---Blog-Index" transform="translate(-77.000000, -94.000000)">
            <g id="Smaller-Logo" transform="translate(77.000000, 94.000000)">
                <g>
                    <path d="M178.479,23.3891 L183,23.3891 L183,0.0071 L178.479,0.0071 L178.479,23.3891 Z M167.105,12.8721 C167.941,12.7671 168.539,12.6341 168.898,12.4761 C169.543,12.2011 169.866,11.7721 169.866,11.1911 C169.866,10.4821 169.62,9.9931 169.128,9.7241 C168.636,9.4541 167.915,9.3191 166.963,9.3191 C165.894,9.3191 165.138,9.5831 164.694,10.1121 C164.377,10.5031 164.166,11.0321 164.06,11.6981 L159.698,11.6981 C159.793,10.1861 160.216,8.9441 160.966,7.9711 C162.162,6.4481 164.214,5.6871 167.122,5.6871 C169.014,5.6871 170.696,6.0621 172.166,6.8131 C173.635,7.5631 174.371,8.9811 174.371,11.0641 L174.371,18.9951 C174.371,19.5451 174.382,20.2111 174.402,20.9941 C174.434,21.5861 174.524,21.9881 174.672,22.1991 C174.82,22.4111 175.043,22.5851 175.339,22.7231 L175.339,23.3891 L170.421,23.3891 C170.283,23.0401 170.188,22.7121 170.135,22.4061 C170.083,22.0991 170.04,21.7501 170.008,21.3591 C169.384,22.0361 168.666,22.6121 167.851,23.0881 C166.879,23.6481 165.778,23.9291 164.551,23.9291 C162.986,23.9291 161.694,23.4821 160.674,22.5881 C159.653,21.6951 159.142,20.4281 159.142,18.7891 C159.142,16.6641 159.962,15.1251 161.601,14.1731 C162.5,13.6551 163.822,13.2851 165.567,13.0631 L167.105,12.8721 Z M169.849,14.9821 C169.564,15.1621 169.276,15.3071 168.985,15.4181 C168.694,15.5291 168.296,15.6321 167.788,15.7281 L166.772,15.9181 C165.821,16.0871 165.138,16.2931 164.726,16.5371 C164.028,16.9491 163.679,17.5891 163.679,18.4561 C163.679,19.2281 163.893,19.7861 164.322,20.1291 C164.75,20.4731 165.271,20.6451 165.884,20.6451 C166.857,20.6451 167.754,20.3591 168.573,19.7881 C169.392,19.2171 169.818,18.1761 169.849,16.6641 L169.849,14.9821 Z M154.947,7.9551 C156.348,9.4461 157.049,11.6351 157.049,14.5221 C157.049,17.5681 156.364,19.8891 154.994,21.4861 C153.625,23.0831 151.861,23.8811 149.704,23.8811 C148.329,23.8811 147.187,23.5371 146.278,22.8501 C145.781,22.4691 145.295,21.9141 144.818,21.1841 L144.818,30.1941 L140.345,30.1941 L140.345,6.0991 L144.675,6.0991 L144.675,8.6531 C145.162,7.9021 145.68,7.3101 146.23,6.8761 C147.235,6.1041 148.429,5.7181 149.815,5.7181 C151.835,5.7181 153.546,6.4641 154.947,7.9551 L154.947,7.9551 Z M151.472,11.2071 C150.865,10.1811 149.879,9.6681 148.514,9.6681 C146.876,9.6681 145.749,10.4451 145.135,12.0001 C144.818,12.8251 144.66,13.8721 144.66,15.1411 C144.66,17.1501 145.194,18.5621 146.261,19.3761 C146.896,19.8521 147.647,20.0901 148.514,20.0901 C149.773,20.0901 150.732,19.6031 151.393,18.6301 C152.054,17.6571 152.384,16.3621 152.384,14.7441 C152.384,13.4121 152.081,12.2321 151.472,11.2071 L151.472,11.2071 Z M123.102,26.7051 L123.674,26.7361 C124.118,26.7581 124.541,26.7421 124.942,26.6891 C125.344,26.6361 125.682,26.5141 125.958,26.3241 C126.222,26.1441 126.467,25.7691 126.695,25.1981 C126.923,24.6261 127.015,24.2781 126.972,24.1511 L120.628,6.0991 L125.656,6.0991 L129.431,18.8531 L133.001,6.0991 L137.807,6.0991 L131.875,23.1041 C130.732,26.3821 129.828,28.4151 129.162,29.2031 C128.496,29.9911 127.163,30.3851 125.165,30.3851 C124.762,30.3851 124.44,30.3821 124.197,30.3771 C123.954,30.3721 123.589,30.3531 123.102,30.3211 L123.102,26.7051 Z M109.809,9.4781 L109.809,6.2581 L112.22,6.2581 L112.22,1.4351 L116.694,1.4351 L116.694,6.2581 L119.502,6.2581 L119.502,9.4781 L116.694,9.4781 L116.694,18.6141 C116.694,19.3231 116.784,19.7651 116.964,19.9391 C117.143,20.1141 117.693,20.2011 118.613,20.2011 C118.751,20.2011 118.896,20.1981 119.05,20.1931 C119.203,20.1881 119.353,20.1801 119.502,20.1691 L119.502,23.5481 L117.36,23.6271 C115.223,23.7011 113.764,23.3311 112.982,22.5171 C112.474,21.9991 112.22,21.2001 112.22,20.1221 L112.22,9.4781 L109.809,9.4781 Z M106.161,21.2871 C104.702,23.0911 102.486,23.9921 99.514,23.9921 C96.543,23.9921 94.327,23.0911 92.868,21.2871 C91.409,19.4841 90.678,17.3141 90.678,14.7761 C90.678,12.2801 91.409,10.1171 92.868,8.2881 C94.327,6.4581 96.543,5.5441 99.514,5.5441 C102.486,5.5441 104.702,6.4581 106.161,8.2881 C107.62,10.1171 108.35,12.2801 108.35,14.7761 C108.35,17.3141 107.62,19.4841 106.161,21.2871 L106.161,21.2871 Z M102.544,18.7891 C103.253,17.8481 103.607,16.5101 103.607,14.7761 C103.607,13.0411 103.253,11.7061 102.544,10.7701 C101.836,9.8341 100.82,9.3671 99.499,9.3671 C98.176,9.3671 97.159,9.8341 96.445,10.7701 C95.731,11.7061 95.374,13.0411 95.374,14.7761 C95.374,16.5101 95.731,17.8481 96.445,18.7891 C97.159,19.7301 98.176,20.2011 99.499,20.2011 C100.82,20.2011 101.836,19.7301 102.544,18.7891 L102.544,18.7891 Z M79.146,9.4781 L79.146,6.2581 L81.557,6.2581 L81.557,1.4351 L86.031,1.4351 L86.031,6.2581 L88.839,6.2581 L88.839,9.4781 L86.031,9.4781 L86.031,18.6141 C86.031,19.3231 86.121,19.7651 86.3,19.9391 C86.48,20.1141 87.03,20.2011 87.95,20.2011 C88.088,20.2011 88.233,20.1981 88.386,20.1931 C88.54,20.1881 88.69,20.1801 88.839,20.1691 L88.839,23.5481 L86.697,23.6271 C84.561,23.7011 83.101,23.3311 82.319,22.5171 C81.811,21.9991 81.557,21.2001 81.557,20.1221 L81.557,9.4781 L79.146,9.4781 Z M75.498,21.2871 C74.039,23.0911 71.823,23.9921 68.851,23.9921 C65.88,23.9921 63.665,23.0911 62.205,21.2871 C60.746,19.4841 60.016,17.3141 60.016,14.7761 C60.016,12.2801 60.746,10.1171 62.205,8.2881 C63.665,6.4581 65.88,5.5441 68.851,5.5441 C71.823,5.5441 74.039,6.4581 75.498,8.2881 C76.958,10.1171 77.687,12.2801 77.687,14.7761 C77.687,17.3141 76.958,19.4841 75.498,21.2871 L75.498,21.2871 Z M71.882,18.7891 C72.59,17.8481 72.944,16.5101 72.944,14.7761 C72.944,13.0411 72.59,11.7061 71.882,10.7701 C71.173,9.8341 70.158,9.3671 68.836,9.3671 C67.513,9.3671 66.496,9.8341 65.782,10.7701 C65.068,11.7061 64.712,13.0411 64.712,14.7761 C64.712,16.5101 65.068,17.8481 65.782,18.7891 C66.496,19.7301 67.513,20.2011 68.836,20.2011 C70.158,20.2011 71.173,19.7301 71.882,18.7891 L71.882,18.7891 Z M58.041,5.6941 C58.099,5.7001 58.229,5.7081 58.429,5.7181 L58.429,10.3501 C58.144,10.3181 57.89,10.2971 57.669,10.2871 C57.446,10.2761 57.266,10.2711 57.129,10.2711 C55.31,10.2711 54.089,10.8631 53.465,12.0471 C53.116,12.7141 52.941,13.7391 52.941,15.1251 L52.941,23.3891 L48.388,23.3891 L48.388,6.0991 L52.703,6.0991 L52.703,9.1131 C53.401,7.9601 54.009,7.1721 54.527,6.7491 C55.374,6.0411 56.473,5.6871 57.827,5.6871 C57.912,5.6871 57.983,5.6891 58.041,5.6941 L58.041,5.6941 Z M43.043,13.2691 C41.647,14.4111 39.654,14.9821 37.062,14.9821 L32.097,14.9821 L32.097,23.3891 L27.244,23.3891 L27.244,0.0081 L37.427,0.0081 C39.775,0.0081 41.647,0.6101 43.043,1.8161 C44.439,3.0211 45.136,4.8881 45.136,7.4161 C45.136,10.1761 44.439,12.1271 43.043,13.2691 L43.043,13.2691 Z M39.339,4.8461 C38.699,4.3281 37.802,4.0681 36.65,4.0681 L32.097,4.0681 L32.097,10.9531 L36.65,10.9531 C37.802,10.9531 38.699,10.6731 39.339,10.1121 C39.979,9.5521 40.299,8.6631 40.299,7.4471 C40.299,6.2311 39.979,5.3641 39.339,4.8461 L39.339,4.8461 Z" id="Fill-1" fill="#FFFFFF"></path>
                    <g id="Dots" transform="translate(0.000000, 1.000000)" fill="#55F3A4">
                        <circle id="Oval" cx="11.5" cy="3.5" r="3.5"></circle>
                        <circle id="Oval-Copy" cx="3.5" cy="10.5" r="3.5"></circle>
                        <circle id="Oval-Copy-2" cx="11.5" cy="17.5" r="3.5"></circle>
                    </g>
                </g>
            </g>
        </g>
    </g>
</svg>